<?xml version="1.0" standalone="no"?><!DOCTYPE svg PUBLIC "-//W3C//DTD SVG 1.1//EN" "http://www.w3.org/Graphics/SVG/1.1/DTD/svg11.dtd"><svg t="1619513416088" class="icon" viewBox="0 0 1024 1024" version="1.1" xmlns="http://www.w3.org/2000/svg" p-id="7497" xmlns:xlink="http://www.w3.org/1999/xlink" width="64" height="64"><defs><style type="text/css"></style></defs><path d="M143.36 1024l122.88 0L266.24 757.76 143.36 757.76 143.36 1024 143.36 1024 143.36 1024zM348.16 1024l122.88 0L471.04 634.88l-122.88 0L348.16 1024 348.16 1024 348.16 1024zM578.56 1024l122.88 0L701.44 535.04l-122.88 0L578.56 1024 578.56 1024 578.56 1024zM801.28 1024l122.88 0L924.16 394.24l-122.88 0L801.28 1024 801.28 1024 801.28 1024zM911.36 279.04 960 0 683.52 61.44 768 143.36l-240.64 250.88L409.6 286.72 64 642.56l51.2 48.64 0 0 296.96-307.2 120.32 107.52L819.2 192 911.36 279.04 911.36 279.04 911.36 279.04z" fill="#d81e06" p-id="7498"></path></svg>