<?xml version="1.0" standalone="no"?><!DOCTYPE svg PUBLIC "-//W3C//DTD SVG 1.1//EN" "http://www.w3.org/Graphics/SVG/1.1/DTD/svg11.dtd"><svg t="1619516451306" class="icon" viewBox="0 0 1024 1024" version="1.1" xmlns="http://www.w3.org/2000/svg" p-id="22739" data-spm-anchor-id="a313x.7781069.0.i57" xmlns:xlink="http://www.w3.org/1999/xlink" width="64" height="64"><defs><style type="text/css"></style></defs><path d="M657.82 813.62a38.4 38.4 0 0 1-27.32-11.35L513.62 685.39c-0.35-0.35-0.63-0.67-0.84-0.91l-0.17-0.2-0.19-0.17a11.56 11.56 0 0 1-0.91-0.94l-0.1-0.11-0.88-0.87-0.25-0.52-0.6-0.59-0.37-0.75-0.46-0.46-0.51-1-0.25-0.25-0.91-1.79v-0.07q-0.19-0.35-0.36-0.72l-0.42-0.84-0.25-0.56-0.12-0.19a11.19 11.19 0 0 1-0.8-1.77l-0.07-0.18-0.07-0.17-0.8-1.6v-0.26L504 670v-0.64l-0.37-0.76v-0.6l-0.38-0.73v-1l-0.13-0.51a10 10 0 0 1-0.28-1.43v-0.19l-0.05-0.2a10.49 10.49 0 0 1-0.2-1.25v-0.25a10.94 10.94 0 0 1-0.15-1.77v-5.56a10.78 10.78 0 0 1 0.09-1.38V650.2l0.74-0.73v-0.83l0.56-1.11 0.11-0.46c0.08-0.34 0.17-0.66 0.26-1l0.05-0.15v-0.16a12 12 0 0 1 0.67-2l0.07-0.15 0.05-0.15a14.51 14.51 0 0 1 0.68-1.57l0.71-1.43 0.12-0.11 0.47-1 0.06-0.16a10.29 10.29 0 0 1 1.32-2.19l0.14-0.2 0.08-0.12c0.17-0.27 0.34-0.51 0.5-0.73l0.2-0.28 0.36-0.72 0.6-0.6 1-2 1.32-0.66 0.48-0.5 0.55-0.56L630.5 513.75a38 38 0 0 1 27.28-11.35 38.42 38.42 0 0 1 27.36 11.35 38.54 38.54 0 0 1 0 54.63l-50.89 50.9h287a38.73 38.73 0 0 1 0 77.46h-287l50.89 50.89a38.67 38.67 0 0 1-27.32 66z" fill="#F56F11" p-id="22740"></path><path d="M354.82 960a86.57 86.57 0 0 1-86.43-86.16V863a38.71 38.71 0 0 1 38.66-38.68h1.48c20.52 0.63 37.19 18.25 37.19 39.27v10a9.11 9.11 0 0 0 9.1 9.09h518.74a9.21 9.21 0 0 0 9.1-9.09v-68.5c0-21.21 16.34-38.46 37.18-39.28h1.49a38.66 38.66 0 0 1 38.55 38.69v74a56.14 56.14 0 0 1-0.73 9.2v0.16a85.68 85.68 0 0 1-29.27 51.47A87.11 87.11 0 0 1 873.56 960z m127.87-146.87a37.07 37.07 0 0 1-5.51-0.46H150.43A86.52 86.52 0 0 1 64 726.2V150.43A86.52 86.52 0 0 1 150.43 64h518.63a86.53 86.53 0 0 1 86.43 86.43v274A38.66 38.66 0 0 1 717 463.12h-1.48c-20.52-0.65-37.2-18.27-37.2-39.28V150.43a9.09 9.09 0 0 0-9.09-9.09h-518.8a9.09 9.09 0 0 0-9.09 9.09V726.2a9.1 9.1 0 0 0 9.09 9.1h333.22a38.92 38.92 0 0 1-1 77.83zM921.33 548a38.71 38.71 0 0 1-38.67-38.67V267.44a9.11 9.11 0 0 0-9.1-9.1h-45.78a38.67 38.67 0 1 1 0-77.34h45.78c47.53 0 86.3 38.76 86.44 86.41v241.93A38.71 38.71 0 0 1 921.33 548z" fill="#2E83D7" p-id="22741"></path><path d="M230.67 302.28a38.67 38.67 0 1 1 0-77.34h380.39a38.67 38.67 0 1 1-0.12 77.34zM230.67 476.8a38.67 38.67 0 1 1 0-77.33h233.88a38.67 38.67 0 1 1 0 77.33zM230.67 652.18a38.67 38.67 0 1 1 0-77.33h175.38a38.67 38.67 0 1 1 0 77.33z" fill="#06AEA6" p-id="22742" data-spm-anchor-id="a313x.7781069.0.i56" class="selected"></path></svg>