<?xml version="1.0" standalone="no"?><!DOCTYPE svg PUBLIC "-//W3C//DTD SVG 1.1//EN" "http://www.w3.org/Graphics/SVG/1.1/DTD/svg11.dtd"><svg t="1608621858232" class="icon" viewBox="0 0 1121 1024" version="1.1" xmlns="http://www.w3.org/2000/svg" p-id="8597" xmlns:xlink="http://www.w3.org/1999/xlink" width="140.125" height="128"><defs><style type="text/css"></style></defs><path d="M1120.513612 601.665214c-2.388558-56.571113-5.657111-134.010681-63.384789-176.351016-12.458216-9.151949-24.06158-14.004493-33.376956-17.914186-9.981659-4.173691-17.8639-7.542815-29.442122-16.631907-14.381634-11.314223-20.755313-21.069597-27.506132-31.352968-5.191971-7.894813-11.062795-16.833049-19.71189-25.142717-24.325579-23.244442-62.416795-33.691241-110.175385-30.17126-45.25689 3.281125-96.598318 18.957608-144.570622 44.125468a441.405537 441.405537 0 0 0-54.23284 33.666098c0-4.81483 0-9.629661-0.113143-14.406777a382.621865 382.621865 0 0 0-43.056902-164.207083c-25.695857-49.556295-61.737941-93.028052-104.229133-125.512443-52.535707-40.228347-106.856547-58.381388-143.150058-66.515057-39.587208-8.799951-93.794905-20.994169-152.993432 1.898275-66.5402 25.733571-98.056596 80.381266-125.713584 128.592425-30.91297 53.641986-82.618968 143.4392-65.446492 263.684243 15.08563 105.599411 74.40987 171.397901 109.886244 210.758824 36.582653 40.605488 86.214376 95.69318 153.911141 95.680609 2.426272 0 4.877687 0 7.341673-0.213713 15.425057-0.892566 27.455847-4.550832 37.135793-7.542815 10.346228-3.14284 18.530182-5.631969 33.276386-5.958824 18.329041-0.402283 29.42955 3.004555 41.18377 6.625106 9.026235 2.77827 19.259321 5.92111 31.202111 6.775962 19.447891 1.395421 39.738064-3.482266 60.091094-14.281063a363.991112 363.991112 0 0 0 9.026235 78.558418c14.821632 64.491069 45.106034 113.142226 67.885336 142.496348 24.841004 32.056964 58.871671 75.956148 119.075906 96.05775a183.969259 183.969259 0 0 0 58.821387 9.566804c43.786041 0 83.624676-14.871917 120.056472-28.461556 58.004248-21.647879 155.080277-57.828249 218.502781-161.466527 55.691118-90.853207 51.944853-179.430999 49.707151-232.356418z m-851.080965 22.138162c-29.24098 1.734847-61.939083-34.546093-90.765207-66.5402-32.434105-35.991799-76.848714-85.284096-88.137794-164.26994C77.644003 302.781168 116.627786 235.084402 145.101913 185.653821c18.668467-32.421533 34.344951-59.613382 57.451108-77.125284 13.300497 21.823878 38.719784 67.684194 61.763083 132.652974 29.115266 82.342398 60.015665 212.782813 45.420318 372.564778a240.691228 240.691228 0 0 0-23.558725 6.159966c-7.95767 2.451415-11.967933 3.620551-16.757621 3.897121z m191.210362-22.691302c-20.114173 19.271892-33.77924 22.942729-36.997508 22.729016-1.935989-0.138285-7.077675-1.722276-11.628506-3.117697a248.912897 248.912897 0 0 0-26.613566-6.964532 968.723737 968.723737 0 0 0-5.719968-215.825082 935.497637 935.497637 0 0 0-45.370033-184.874397 825.045682 825.045682 0 0 0-56.168829-124.619876c16.895906 1.257136 33.678669 5.028543 50.172291 8.686809 22.628445 5.028543 66.955055 18.379326 108.867964 50.499147 67.244196 51.441999 110.414241 136.638095 112.840513 222.324474 2.614843 93.053195-42.981474 186.772672-89.394929 231.162138z m111.60852 155.067706c-18.945037-82.442969 2.061703-175.634448 54.823694-243.192928 57.300252-73.379019 152.113437-116.473636 216.227365-121.13761 27.795273-2.023989 40.668344 3.859407 42.994046 6.084537 1.407992 1.332564 4.362261 5.83311 6.964532 9.80566a250.672887 250.672887 0 0 0 16.078768 22.339304A968.246025 968.246025 0 0 0 776.158962 600.005795a935.170781 935.170781 0 0 0-82.895537 171.360186 823.235406 823.235406 0 0 0-36.205512 131.798122c-12.244503-11.729077-22.779301-25.318716-33.138101-38.68207-14.230778-18.354183-39.863778-56.835111-51.680854-108.302253z m423.541636 31.956393c-47.57002 77.703566-120.77304 105.021128-174.213885 124.971874-35.061519 13.074213-64.478497 24.036437-93.442907 22.791873 8.674237-59.952808 51.303714-268.260217 239.559806-457.597446a237.950672 237.950672 0 0 0 22.075306 10.2708c7.618243 3.193125 11.452508 4.852544 15.324486 7.693671 23.634154 17.335903 25.695857 66.100203 27.518703 109.119391 2.023989 48.412301 4.839973 114.763931-36.83408 182.749837z" p-id="8598"></path></svg>