<?xml version="1.0" standalone="no"?><!DOCTYPE svg PUBLIC "-//W3C//DTD SVG 1.1//EN" "http://www.w3.org/Graphics/SVG/1.1/DTD/svg11.dtd"><svg t="1621303456983" class="icon" viewBox="0 0 1024 1024" version="1.1" xmlns="http://www.w3.org/2000/svg" p-id="6769" xmlns:xlink="http://www.w3.org/1999/xlink" width="32" height="32"><defs><style type="text/css"></style></defs><path d="M512 512m-512 0a512 512 0 1 0 1024 0 512 512 0 1 0-1024 0Z" fill="#FF9A44" opacity=".09" p-id="6770"></path><path d="M196.4 173.62m28 0l514.28 0q28 0 28 28l0 221.06q0 28-28 28l-514.28 0q-28 0-28-28l0-221.06q0-28 28-28Z" fill="#FF9A44" p-id="6771"></path><path d="M255.78 223.82m8 0l430.88 0q8 0 8 8l0 29.62q0 8-8 8l-430.88 0q-8 0-8-8l0-29.62q0-8 8-8Z" fill="#FFFFFF" p-id="6772"></path><path d="M456.88 501.36m8 0l366.72 0q8 0 8 8l0 29.62q0 8-8 8l-366.72 0q-8 0-8-8l0-29.62q0-8 8-8Z" fill="#FF9A44" p-id="6773"></path><path d="M793.98 547m0-8l0-242.84q0-8 8-8l29.62 0q8 0 8 8l0 242.84q0 8-8 8l-29.62 0q-8 0-8-8Z" fill="#FF9A44" p-id="6774"></path><path d="M456.88 617.96m0-8l0-100.6q0-8 8-8l29.62 0q8 0 8 8l0 100.6q0 8-8 8l-29.62 0q-8 0-8-8Z" fill="#FF9A44" p-id="6775"></path><path d="M736.28 288.14m8 0l87.32 0q8 0 8 8l0 29.62q0 8-8 8l-87.32 0q-8 0-8-8l0-29.62q0-8 8-8Z" fill="#FF9A44" p-id="6776"></path><path d="M404.24 592.92m28 0l95.44 0q28 0 28 28l0 245.46q0 28-28 28l-95.44 0q-28 0-28-28l0-245.46q0-28 28-28Z" fill="#FF9A44" p-id="6777"></path></svg>