<?xml version="1.0" standalone="no"?><!DOCTYPE svg PUBLIC "-//W3C//DTD SVG 1.1//EN" "http://www.w3.org/Graphics/SVG/1.1/DTD/svg11.dtd"><svg t="1619516539049" class="icon" viewBox="0 0 1024 1024" version="1.1" xmlns="http://www.w3.org/2000/svg" p-id="23515" xmlns:xlink="http://www.w3.org/1999/xlink" width="64" height="64"><defs><style type="text/css"></style></defs><path d="M512 512m-512 0a512 512 0 1 0 1024 0 512 512 0 1 0-1024 0Z" fill="#EC692A" p-id="23516"></path><path d="M516.87619 794.819048a29.257143 29.257143 0 0 1-29.257142-29.257143v-497.371429a29.257143 29.257143 0 0 1 58.514285 0v497.371429a29.257143 29.257143 0 0 1-29.257143 29.257143zM653.409524 718.262857a29.257143 29.257143 0 0 1-29.257143-29.257143v-344.259047a29.257143 29.257143 0 1 1 58.514286 0v344.259047a29.257143 29.257143 0 0 1-29.257143 29.257143zM789.942857 651.459048a29.257143 29.257143 0 0 1-29.257143-29.257143V421.302857a29.257143 29.257143 0 0 1 58.514286 0v200.899048a29.257143 29.257143 0 0 1-29.257143 29.257143zM243.809524 651.459048a29.257143 29.257143 0 0 1-29.257143-29.257143V421.302857a29.257143 29.257143 0 0 1 58.514286 0v200.899048a29.257143 29.257143 0 0 1-29.257143 29.257143zM380.342857 718.262857a29.257143 29.257143 0 0 1-29.257143-29.257143v-344.259047a29.257143 29.257143 0 1 1 58.514286 0v344.259047a29.257143 29.257143 0 0 1-29.257143 29.257143z" fill="#FFFFFF" p-id="23517"></path></svg>