<?xml version="1.0" standalone="no"?><!DOCTYPE svg PUBLIC "-//W3C//DTD SVG 1.1//EN" "http://www.w3.org/Graphics/SVG/1.1/DTD/svg11.dtd"><svg t="1619515787243" class="icon" viewBox="0 0 1041 1024" version="1.1" xmlns="http://www.w3.org/2000/svg" p-id="17511" xmlns:xlink="http://www.w3.org/1999/xlink" width="65.0625" height="64"><defs><style type="text/css"></style></defs><path d="M366.73053 925.905667H135.160512A60.466545 60.466545 0 0 1 74.88117 865.439122v-730.091407A60.466545 60.466545 0 0 1 135.160512 74.88117h665.693601A60.466545 60.466545 0 0 1 861.133455 135.160512V336.965265a37.440585 37.440585 0 0 0 74.88117 0V135.160512A135.347715 135.347715 0 0 0 800.854113 0H135.160512A135.347715 135.347715 0 0 0 0 135.160512v730.091408a135.347715 135.347715 0 0 0 135.160512 135.347714h231.570018a37.440585 37.440585 0 0 0 0-74.88117z" p-id="17512" fill="#1296db"></path><path d="M145.082267 184.769287m30.514077 0l577.895429 0q30.514077 0 30.514077 30.514077l0 15.35064q0 30.514077-30.514077 30.514076l-577.895429 0q-30.514077 0-30.514077-30.514076l0-15.35064q0-30.514077 30.514077-30.514077Z" p-id="17513" fill="#1296db"></path><path d="M145.082267 363.54808m30.514077 0l384.889214 0q30.514077 0 30.514076 30.514077l0 15.35064q0 30.514077-30.514076 30.514077l-384.889214 0q-30.514077 0-30.514077-30.514077l0-15.35064q0-30.514077 30.514077-30.514077Z" p-id="17514" fill="#1296db"></path><path d="M145.082267 545.322121m30.514077 0l283.050822 0q30.514077 0 30.514077 30.514076l0 15.35064q0 30.514077-30.514077 30.514077l-283.050822 0q-30.514077 0-30.514077-30.514077l0-15.35064q0-30.514077 30.514077-30.514076Z" p-id="17515" fill="#1296db"></path><path d="M1000.038026 486.727605c-9.547349-12.917002-43.992687-56.160878-73.196344-56.160877-11.793784 0-24.710786 7.862523-41.746252 25.459597a414.841682 414.841682 0 0 0-37.440585 48.111152 534.838757 534.838757 0 0 0-32.947715 53.165631 98.655941 98.655941 0 0 0-15.537843 43.618281 40.810238 40.810238 0 0 0 18.720293 32.573309 230.072395 230.072395 0 0 0 28.82925 14.414626 110.449726 110.449726 0 0 1 20.966728 10.670566 163.802559 163.802559 0 0 1-23.961975 44.741499 494.402925 494.402925 0 0 1-53.914442 66.082633 480.362706 480.362706 0 0 1-66.082633 53.914442 156.876051 156.876051 0 0 1-44.741499 24.149178 117.937843 117.937843 0 0 1-10.670567-21.153931 224.64351 224.64351 0 0 0-13.104204-26.957221 40.435832 40.435832 0 0 0-32.573309-19.656307 98.655941 98.655941 0 0 0-43.618282 15.537843A551.312614 551.312614 0 0 0 524.16819 828.18574a382.268373 382.268373 0 0 0-48.111152 38.751006c-17.597075 16.66106-25.459598 29.578062-25.459597 41.371846 0 29.203656 42.495064 63.648995 56.160877 73.945156a191.134186 191.134186 0 0 0 100.902377 41.746252A269.197806 269.197806 0 0 0 730.091408 977.012066a844.846801 844.846801 0 0 0 140.402193-110.824132l14.04022-14.414625a874.050457 874.050457 0 0 0 110.449726-140.402194 274.626691 274.626691 0 0 0 46.800731-122.617916A190.759781 190.759781 0 0 0 1000.038026 486.727605z" p-id="17516" fill="#1296db"></path></svg>