<?xml version="1.0" standalone="no"?><!DOCTYPE svg PUBLIC "-//W3C//DTD SVG 1.1//EN" "http://www.w3.org/Graphics/SVG/1.1/DTD/svg11.dtd"><svg t="1624240389990" class="icon" viewBox="0 0 1024 1024" version="1.1" xmlns="http://www.w3.org/2000/svg" p-id="3266" xmlns:xlink="http://www.w3.org/1999/xlink" width="32" height="32"><defs><style type="text/css"></style></defs><path d="M878.08 679.058286c-29.842286-19.968-62.171429-40.082286-89.526857-55.076572-42.422857-22.528-62.244571-25.014857-72.192-25.014857-22.308571 0-39.789714 10.093714-54.784 32.548572a299.885714 299.885714 0 0 0-24.868572 47.689142c-5.12 10.020571-12.434286 27.574857-17.554285 35.108572-9.874286-2.413714-34.816-12.434286-74.605715-40.155429A780.068571 780.068571 0 0 1 435.2 583.972571a775.094857 775.094857 0 0 1-89.453714-110.226285c-27.355429-40.155429-37.376-65.170286-39.789715-75.264 5.046857-4.973714 24.868571-12.507429 34.816-17.554286 16.237714-7.314286 32.182857-15.798857 47.323429-25.014857 22.381714-15.140571 32.329143-35.108571 32.329143-55.076572 0-10.093714-2.340571-27.721143-24.868572-72.850285a1306.624 1306.624 0 0 0-54.784-90.185143A574.390857 574.390857 0 0 0 276.114286 57.636571c-27.209143-30.208-49.737143-42.788571-69.632-42.788571-49.737143 0-104.594286 70.290286-122.221715 92.891429C64.365714 135.460571 14.628571 208.310857 14.628571 278.528c0 62.756571 42.422857 145.554286 77.238858 205.824a1578.569143 1578.569143 0 0 0 186.953142 235.958857l22.454858 22.674286c74.752 72.996571 157.037714 140.580571 234.130285 188.342857 57.270857 35.108571 139.702857 77.824 204.361143 77.824l-1.462857-1.609143c69.924571 0 142.043429-47.542857 169.472-70.217143 19.968-17.773714 92.16-75.337143 92.16-122.88 0-20.041143-12.507429-42.569143-42.349714-70.217143-24.576-24.137143-51.2-45.933714-79.506286-65.097142zM647.753143 366.518857c-34.816-25.014857-79.725714-32.548571-122.002286-25.014857a21.723429 21.723429 0 0 0 7.387429 42.715429c32.182857-7.387429 62.171429 0 89.453714 17.554285 24.941714 16.749714 42.057143 43.008 47.323429 72.630857 0 10.020571 9.947429 17.554286 19.894857 17.554286l7.68-0.073143a20.699429 20.699429 0 0 0 17.481143-25.161143 155.355429 155.355429 0 0 0-67.218286-100.205714z" fill="#4B74FF" p-id="3267"></path><path d="M837.412571 116.004571C743.277714 53.394286 629.540571 31.012571 513.170286 50.907429a20.48 20.48 0 0 0-17.408 25.161142 20.48 20.48 0 0 0 24.795428 17.481143c103.936-17.700571 207.872 2.340571 294.619429 59.977143a363.227429 363.227429 0 0 1 158.354286 240.64c0 10.020571 9.874286 17.554286 19.748571 17.554286h2.413714a20.114286 20.114286 0 0 0 14.043429-8.704 20.48 20.48 0 0 0 3.291428-16.310857c-17.261714-110.226286-81.481143-208.091429-175.616-270.701715z" fill="#4B74FF" opacity=".3" p-id="3268"></path><path d="M828.489143 445.147429a20.114286 20.114286 0 0 0 14.189714-8.996572 22.162286 22.162286 0 0 0 3.218286-16.969143 266.678857 266.678857 0 0 0-111.762286-176.201143 271.506286 271.506286 0 0 0-204.361143-44.105142 22.381714 22.381714 0 0 0-17.481143 25.965714 21.650286 21.650286 0 0 0 24.941715 18.139428 240.274286 240.274286 0 0 1 174.372571 36.205715 210.944 210.944 0 0 1 94.500572 144.969143c0 10.386286 9.947429 18.139429 19.894857 18.139428v0.146286c0.731429 0 1.389714 0.292571 1.828571 0.731428 0.438857 0.512 0.731429 1.243429 0.731429 1.974858z" fill="#4B74FF" opacity=".7" p-id="3269"></path></svg>