<?xml version="1.0" standalone="no"?><!DOCTYPE svg PUBLIC "-//W3C//DTD SVG 1.1//EN" "http://www.w3.org/Graphics/SVG/1.1/DTD/svg11.dtd"><svg t="1619513976817" class="icon" viewBox="0 0 1024 1024" version="1.1" xmlns="http://www.w3.org/2000/svg" p-id="13928" xmlns:xlink="http://www.w3.org/1999/xlink" width="64" height="64"><defs><style type="text/css"></style></defs><path d="M512 512m-448 0a448 448 0 1 0 896 0 448 448 0 1 0-896 0Z" fill="#1296db" p-id="13929" data-spm-anchor-id="a313x.7781069.0.i23" class="selected"></path><path d="M512 228.355c21.295 0 38.925 15.694 41.954 36.147l0.46 6.267v198.816h198.817c23.424 0 42.414 18.99 42.414 42.415 0 21.295-15.694 38.925-36.147 41.954l-6.267 0.46H554.414v198.817c0 23.424-18.99 42.414-42.414 42.414-21.295 0-38.925-15.694-41.954-36.147l-0.46-6.267-0.001-198.817H270.769c-23.424 0-42.414-18.99-42.414-42.414 0-21.295 15.694-38.925 36.147-41.954l6.267-0.46 198.816-0.001V270.769c0-23.424 18.99-42.414 42.415-42.414z" fill="#FFFFFF" p-id="13930" data-spm-anchor-id="a313x.7781069.0.i22" class=""></path></svg>