<?xml version="1.0" standalone="no"?><!DOCTYPE svg PUBLIC "-//W3C//DTD SVG 1.1//EN" "http://www.w3.org/Graphics/SVG/1.1/DTD/svg11.dtd"><svg t="1619516020038" class="icon" viewBox="0 0 1024 1024" version="1.1" xmlns="http://www.w3.org/2000/svg" p-id="18379" xmlns:xlink="http://www.w3.org/1999/xlink" width="64" height="64"><defs><style type="text/css"></style></defs><path d="M596.8896 20.1216c251.2896 50.6368 412.2112 296.448 361.5744 549.5808-1.792 12.6464-9.0112 21.7088-19.8656 28.928-7.2192 5.4272-18.0736 7.2704-27.136 7.2704a51.2512 51.2512 0 0 1-36.1472-21.7088c-7.2192-9.0624-9.0624-21.7088-7.2192-34.3552a373.76 373.76 0 0 0-54.272-280.2176 371.0464 371.0464 0 0 0-235.008-159.1296 44.9536 44.9536 0 0 1-28.928-19.8656c-7.2192-9.0624-9.0112-21.7088-7.2192-34.3552 5.4272-25.2928 28.928-41.5744 54.272-36.1472z m79.5648 692.4288c3.584 1.792 63.2832 41.5744 108.4928 88.576 18.0736 18.0736 47.0016 47.0016 47.0016 83.1488 0 23.552-14.4896 48.8448-41.6256 74.1376-5.376 7.2192-66.8672 63.2832-164.5056 63.2832-27.136 0-54.272-3.584-81.3568-12.6464a370.8416 370.8416 0 0 1-86.784-39.7824c-113.8688-66.9184-202.496-153.6512-285.6448-280.2176C29.184 470.272 25.6 284.0576 25.6 247.9104 25.6 85.1968 161.1776 21.9136 173.824 14.6944 195.584 5.632 215.4496 0.2048 231.68 0.2048c9.0624 0 16.2816 1.8432 23.552 3.6352 16.2304 5.4272 36.1472 16.2816 50.5856 47.0016 19.9168 39.7824 37.9904 99.4304 52.4288 159.0784 12.6464 63.2832-23.5008 81.408-57.856 99.4816h-1.792s-61.44 25.2928-72.3456 30.72c-10.8032 3.584-16.2304 16.2816-12.6464 27.136 23.552 74.0864 61.44 151.8592 108.4928 224.1536a906.8032 906.8032 0 0 0 157.2864 189.8496c3.584 3.584 9.0624 5.4272 14.4384 5.4272h1.8432c7.2192-1.8432 12.6464-3.6352 16.2816-9.0624 9.0112-10.8544 23.5008-28.928 37.9392-43.3664 28.928-27.136 54.272-39.7824 79.5648-39.7824 7.2192 0 12.6464 1.792 19.8656 3.584 5.4272 1.8432 16.2816 7.2704 27.136 14.4896zM483.0208 397.9776c-12.6976-1.8432-23.552-9.0624-27.136-19.9168-7.2192-9.0112-9.0624-21.6576-7.2192-34.304a43.8784 43.8784 0 0 1 47.0016-36.1984h7.2192c106.6496 21.7088 175.36 128.3584 153.6512 235.008a44.9536 44.9536 0 0 1-19.8656 28.9792 50.9952 50.9952 0 0 1-27.136 7.168c-1.792-1.7408-5.4272-1.7408-7.168-1.7408-12.6976-1.8432-21.76-9.0624-28.9792-19.9168-7.2192-10.8544-9.0112-21.7088-7.2192-34.304 5.4272-27.136 0-56.064-16.2816-79.5648-14.4384-23.552-39.7824-39.7824-66.8672-45.2096z m47.0016-144.64c-25.344-5.4272-39.7824-28.928-34.3552-54.272 5.4272-25.2928 28.928-41.5744 54.272-36.1472a329.728 329.728 0 0 1 209.664 142.848c47.0016 74.1376 65.0752 162.7136 47.0016 249.4976a44.9536 44.9536 0 0 1-19.8656 28.928c-9.0624 7.2192-21.7088 9.0112-34.3552 7.2192-25.2928-5.4272-41.5744-28.928-36.1472-54.272 12.6464-63.232 1.792-128.3072-34.3552-180.736a237.6192 237.6192 0 0 0-151.8592-103.0656z" p-id="18380" fill="#67C23A"></path></svg>