<?xml version="1.0" standalone="no"?><!DOCTYPE svg PUBLIC "-//W3C//DTD SVG 1.1//EN" "http://www.w3.org/Graphics/SVG/1.1/DTD/svg11.dtd"><svg t="1619513852003" class="icon" viewBox="0 0 1024 1024" version="1.1" xmlns="http://www.w3.org/2000/svg" p-id="12094" xmlns:xlink="http://www.w3.org/1999/xlink" width="64" height="64"><defs><style type="text/css"></style></defs><path d="M497.152 27.008c42.496-0.64 71.936 6.016 97.28 21.888l26.048 20.352c14.528-3.2 27.776-9.344 44.608-12.16 67.84-11.648 127.04 53.12 112.768 122.496-11.136 54.08-39.168 103.232-77.888 129.92l0.768 1.664c35.2 10.88 66.816 36.672 94.08 56.768 95.552 70.272 158.72 170.432 189.056 306.048 6.976 31.04 8.128 64 8.128 101.504 0 124.096-37.504 210.816-131.456 240.256-28.352 8.96-69.184 6.528-106.24 6.528H308.096c-88.512 0-139.712 3.904-191.424-34.112-67.776-49.792-99.072-177.6-74.624-299.52 24.576-122.688 78.528-230.912 159.808-296.32 24.32-19.584 48.768-39.552 76.224-56l48.64-25.152-25.088-26.88a246.592 246.592 0 0 1-47.04-95.744C238.08 121.344 272 77.696 321.152 62.72c10.88-3.328 27.2-8.128 42.944-5.696 16.896 2.624 29.952 9.728 44.608 11.392 14.72-15.872 36.992-28.608 60.032-35.712l28.416-5.696z m-17.856 645.376v47.872c-38.208-0.64-113.536-12.928-108.736 30.08 3.584 31.808 73.6 21.76 108.736 21.12-0.896 33.344 0.384 53.504 27.584 59.2 5.76 1.28 16.192 1.6 21.12-0.768 17.792-8.704 19.392-30.912 18.624-58.432 37.312 0.576 105.216 11.2 111.168-21.12 8.128-44.416-73.792-32.192-111.168-31.68l0.832-46.272c37.312 0.64 120.512 11.072 109.44-34.944-7.552-31.68-71.424-22.592-110.272-21.888V588.8l95.744-104.768c8.512-11.008 13.12-26.944 3.2-39.744-8.64-11.2-27.264-13.12-39.68-4.096-30.976 22.464-64.896 63.424-91.712 91.776l-1.6-0.832-21.952-24.32c-13.888-17.408-42.688-55.04-60.032-66.56-12.48-8.32-33.408-15.232-43.776 0-9.792 14.272-2.944 36.224 5.696 47.872 25.408 34.432 62.4 65.728 88.384 100.672l-1.6 28.416c-38.592-0.768-118.464-13.12-107.904 34.88 6.72 30.464 71.296 20.992 107.904 20.288z" fill="#FF6000" p-id="12095"></path></svg>