<?xml version="1.0" standalone="no"?><!DOCTYPE svg PUBLIC "-//W3C//DTD SVG 1.1//EN" "http://www.w3.org/Graphics/SVG/1.1/DTD/svg11.dtd"><svg t="1619513759345" class="icon" viewBox="0 0 1024 1024" version="1.1" xmlns="http://www.w3.org/2000/svg" p-id="10655" xmlns:xlink="http://www.w3.org/1999/xlink" width="64" height="64"><defs><style type="text/css"></style></defs><path d="M732.62 634.436c-58.123 53.108-136.2 85.649-221.95 85.649-85.65 0-163.521-32.438-221.644-85.342-103.965 52.392-172.218 145.613-172.218 272.193h790.384c0-126.887-69.48-220.21-174.572-272.5zM253.826 519.112V318.139c-2.866 0-5.629 0.102-8.391 0.307 45.536-98.952 147.148-167.819 265.235-167.819 118.189 0 219.699 68.867 265.235 167.819a112.873 112.873 0 0 0-8.391-0.307v201.075c56.69 0 102.738-45.024 102.738-100.486 0-37.657-21.182-70.505-52.597-87.798-44.206-124.431-164.749-213.764-306.985-213.764-142.237 0-262.78 89.333-306.985 213.764-31.415 17.191-52.597 50.039-52.597 87.798 0 55.36 45.945 100.384 102.738 100.384zM510.67 217.755c-122.897 0-222.462 97.519-222.462 217.755 0 120.235 99.565 217.754 222.462 217.754 122.896 0 222.462-97.519 222.462-217.754 0-120.236-99.668-217.755-222.462-217.755z" p-id="10656" fill="#1296db"></path></svg>